<svg xmlns="http://www.w3.org/2000/svg" viewBox="0 0 66.76 58.46"><defs><style>.cls-1{fill:#5d5d5d;}</style></defs><g id="Layer_2" data-name="Layer 2"><g id="Logo"><path id="Fox" class="cls-1" d="M8.52,25.94,33.38,58.46a1.84,1.84,0,0,1-.47-.07h0a1.68,1.68,0,0,1-.42-.22h0L.66,34.81a1.62,1.62,0,0,1-.05-2.57ZM33.89,58.38a1.68,1.68,0,0,0,.42-.22h0L66.1,34.81a1.61,1.61,0,0,0,.66-1.27,1.59,1.59,0,0,0-.61-1.3l-7.91-6.3L33.38,58.46a1.84,1.84,0,0,0,.47-.07ZM26.37,10l7,33.73L40.4,10Zm33,9.55L62.43,1.9A1.62,1.62,0,0,0,61.75.29,1.59,1.59,0,0,0,60,.23L43.46,10,34.79,51.68Zm-51.95,0L32,51.68,23.3,10,6.76.23A1.61,1.61,0,0,0,5,.29,1.64,1.64,0,0,0,4.33,1.9Z"/></g></g></svg>