<svg xmlns="http://www.w3.org/2000/svg" viewBox="0 0 66.59 58.62"><defs><style>.cls-1{fill:#5d5d5d;}</style></defs><g id="Layer_2" data-name="Layer 2"><g id="Logo"><path id="Fox" class="cls-1" d="M66,31.67a5,5,0,0,0-.4-.4l-.06-.05h0l-7-5.58L62.41,3.29A2.8,2.8,0,0,0,59.75,0a2.78,2.78,0,0,0-1.53.39L42.63,9.6H24L8.37.39a2.81,2.81,0,0,0-4.19,2.9L8.07,25.64l-7,5.58h0A2.81,2.81,0,0,0,0,33.47a2.3,2.3,0,0,0,.09.64,2.83,2.83,0,0,0,1.06,1.57L31.68,58.11l.08,0a3,3,0,0,0,.72.34,2.91,2.91,0,0,0,.82.12,2.63,2.63,0,0,0,.73-.1h0l.1,0a2.8,2.8,0,0,0,.65-.32l.13-.08,30.49-22.4a2.84,2.84,0,0,0,1.14-2.21,2.68,2.68,0,0,0-.06-.64A2.94,2.94,0,0,0,66,31.67ZM2.62,33.17l6.59-5.24L27.66,52.05l-25-18.39a.28.28,0,0,1-.13-.24A.3.3,0,0,1,2.62,33.17ZM64,33.66l-25,18.4L57.38,27.93,64,33.17a.33.33,0,0,1,.11.25A.31.31,0,0,1,64,33.66Zm-8-8L35.64,52.25l8.44-40.61,5.69-3.36,9.72-5.74a.3.3,0,0,1,.33,0,.29.29,0,0,1,.13.3ZM33.3,51.23,25.16,12.1H41.44ZM6.77,2.55a.34.34,0,0,1,.17,0,.29.29,0,0,1,.16,0l15.41,9.1L31,52.25,10.61,25.64l-4-22.78A.31.31,0,0,1,6.77,2.55Z"/></g></g></svg>